<svg xmlns="http://www.w3.org/2000/svg" viewBox="0 0 340.29 36.93"><defs><style>.cls-1{fill:#292929;}</style></defs><title>Asset 1</title><g id="Layer_2" data-name="Layer 2"><g id="gursimran"><path id="shape" class="cls-1" d="M8.52,36.51a8.19,8.19,0,0,1-6-2.5A8.21,8.21,0,0,1,0,28V8.58a8.23,8.23,0,0,1,2.5-6A8.23,8.23,0,0,1,8.5.09a8.19,8.19,0,0,1,6,2.5,8.39,8.39,0,0,1,1.85,2.75A8.24,8.24,0,0,1,17,8.59v4.06H11.45V8.47a3.11,3.11,0,0,0-3.1-3.1,3.18,3.18,0,0,0-1.18.23,3.07,3.07,0,0,0-1,.68,3,3,0,0,0-.89,2.19V28a3.08,3.08,0,0,0,.92,2.13A3,3,0,0,0,8.36,31a2.86,2.86,0,0,0,1.19-.22,3,3,0,0,0,1-.67,2.92,2.92,0,0,0,.67-1A3,3,0,0,0,11.45,28V21h-3V15.6H17V28a8.09,8.09,0,0,1-.63,3.26A8,8,0,0,1,14.5,34a8.21,8.21,0,0,1-6,2.51Zm20.68-.06A8.42,8.42,0,0,1,26,35.83,8.65,8.65,0,0,1,23.2,34a8.5,8.5,0,0,1-2.49-6V.45H26V27.93a2.79,2.79,0,0,0,.23,1.18,2.87,2.87,0,0,0,.68,1,3,3,0,0,0,1,.67,3.23,3.23,0,0,0,2.37,0,3.07,3.07,0,0,0,1.66-1.66,3.14,3.14,0,0,0,.23-1.18V.45h5.6V28a8.16,8.16,0,0,1-.62,3.27A8,8,0,0,1,35.27,34a8.27,8.27,0,0,1-6.07,2.45ZM49.89.45c3,0,5.19.83,6.59,2.47a9,9,0,0,1,1.85,6v5.17a8.29,8.29,0,0,1-2.87,6.39l4,15.54H53.62L50.37,22.64H46.79V36.05H41.42V.45ZM53.1,9c0-2.06-1-3.1-3.07-3.1H46.79V17.32H50a2.86,2.86,0,0,0,2.17-.91,2.94,2.94,0,0,0,.9-2.19ZM80.88,27.19A10,10,0,0,1,79,33.55a6.93,6.93,0,0,1-3.7,2.53,9.79,9.79,0,0,1-3,.4A8.44,8.44,0,0,1,67,34.92a8.65,8.65,0,0,1-2.74-3.48,13.86,13.86,0,0,1-1.18-5L68.24,26a7.78,7.78,0,0,0,1.65,4.51,2.71,2.71,0,0,0,1,.76,2.63,2.63,0,0,0,1.23.24,3.28,3.28,0,0,0,2.81-1.74,4.28,4.28,0,0,0,.54-2.36,6.56,6.56,0,0,0-2-4.41l-4.77-4.52a20.38,20.38,0,0,1-3.78-4.64,10.71,10.71,0,0,1-1.19-5A8.53,8.53,0,0,1,67,1.51,8.13,8.13,0,0,1,72,0a9.13,9.13,0,0,1,4.92,1.28,7.46,7.46,0,0,1,2.57,2.78,10.29,10.29,0,0,1,1.18,4.12l-5.14.94a6.23,6.23,0,0,0-1.25-3.41,2.63,2.63,0,0,0-1-.68,2.75,2.75,0,0,0-1.17-.2,2.47,2.47,0,0,0-2.25,1.3,5,5,0,0,0-.62,2.62,7.81,7.81,0,0,0,2.1,5A17.16,17.16,0,0,0,73.72,16a32.13,32.13,0,0,1,2.47,2.19,18.21,18.21,0,0,1,3.07,3.92,16.27,16.27,0,0,1,.82,1.68A9.77,9.77,0,0,1,80.88,27.19Zm9.06,8.86H84.57V.45h5.37Zm9.06,0H93.64V.43h7.71l5,25.59L111.15.43h7.4V36.05h-5.37V13.66l-4.66,22.39H104.2L99,13.72ZM130.71.45c3,0,5.19.83,6.59,2.47a9,9,0,0,1,1.85,6v5.17a8.29,8.29,0,0,1-2.87,6.39l4,15.54h-5.8l-3.26-13.41h-3.58V36.05h-5.37V.45ZM133.92,9c0-2.06-1-3.1-3.07-3.1h-3.23V17.32h3.24a2.86,2.86,0,0,0,2.17-.91,2.94,2.94,0,0,0,.9-2.19Zm16.93,18.84L149.55,36H144L150,.45h7.39l6,35.6h-5.65l-1.25-8.18Zm2.82-19.26-2,14h4ZM173.07.43l7.13,23.94V.43h5.37V36.05H179.8l-7.39-22.81V36.05H167V.43Zm28,27.56a8.09,8.09,0,0,1-.62,3.26A8,8,0,0,1,198.58,34a8.2,8.2,0,0,1-6,2.46,10.38,10.38,0,0,1-3.32-.43l.77-5a7.45,7.45,0,0,0,1.56.17,7.23,7.23,0,0,0,1.14,0,3.38,3.38,0,0,0,2.2-.94,2.77,2.77,0,0,0,.9-2.13V.51h5.26Zm12.2-28a8.19,8.19,0,0,1,6,2.5,8.28,8.28,0,0,1,2.49,6V28a8.49,8.49,0,0,1-.52,3.39,8.62,8.62,0,0,1-1.82,2.9,8.45,8.45,0,0,1-2.81,2,8.48,8.48,0,0,1-6.7,0,8.48,8.48,0,0,1-4.62-4.85,8.32,8.32,0,0,1-.53-3.39V8.52a8.23,8.23,0,0,1,2.5-6A8.48,8.48,0,0,1,210,.64,8.36,8.36,0,0,1,213.27,0Zm2.93,8.41A3.13,3.13,0,0,0,216,7.24a3.08,3.08,0,0,0-5-1A2.93,2.93,0,0,0,210,8.41V27.9a2.79,2.79,0,0,0,.23,1.18,2.87,2.87,0,0,0,.68,1,3,3,0,0,0,1,.67,3.23,3.23,0,0,0,2.37,0,3.07,3.07,0,0,0,1.66-1.66,3.14,3.14,0,0,0,.23-1.18Zm15-2.56h-5.71V.45h16.76v5.4h-5.68v30.2H231.2Zm36.19,21.33a10,10,0,0,1-1.93,6.36,6.94,6.94,0,0,1-3.69,2.53,9.83,9.83,0,0,1-3,.4,8.36,8.36,0,0,1-5.23-1.56,8.65,8.65,0,0,1-2.74-3.48,13.86,13.86,0,0,1-1.18-5l5.11-.37a7.78,7.78,0,0,0,1.65,4.51,2.71,2.71,0,0,0,1,.76,2.63,2.63,0,0,0,1.23.24,3.28,3.28,0,0,0,2.81-1.74,4.28,4.28,0,0,0,.54-2.36,6.56,6.56,0,0,0-2-4.41l-4.77-4.52a20.38,20.38,0,0,1-3.78-4.64,10.71,10.71,0,0,1-1.19-5q0-4.86,3.27-7.36a8.13,8.13,0,0,1,5-1.51,9.13,9.13,0,0,1,4.92,1.28A7.41,7.41,0,0,1,266,4.07a10.29,10.29,0,0,1,1.18,4.12L262,9.12a6.23,6.23,0,0,0-1.25-3.41,2.63,2.63,0,0,0-1-.68,2.75,2.75,0,0,0-1.17-.2,2.51,2.51,0,0,0-1.31.34,2.48,2.48,0,0,0-.93,1,5.07,5.07,0,0,0-.63,2.61,7.81,7.81,0,0,0,2.1,5A16.87,16.87,0,0,0,260.23,16a32.13,32.13,0,0,1,2.47,2.19,18.21,18.21,0,0,1,3.07,3.92,16.27,16.27,0,0,1,.82,1.68,9.77,9.77,0,0,1,.8,3.4ZM276.46,36h-5.37V.45h5.37ZM286.17.43l7.13,23.94V.43h5.37V36.05H292.9l-7.39-22.81V36.05h-5.37V.43Zm24.71,36.08a8.28,8.28,0,0,1-3.26-.64A8.71,8.71,0,0,1,304.85,34a8.54,8.54,0,0,1-2.5-6V8.58a8.23,8.23,0,0,1,2.5-6,8.39,8.39,0,0,1,12,0,8.39,8.39,0,0,1,1.85,2.75,8.24,8.24,0,0,1,.62,3.25v4.06H313.8V8.47a3.16,3.16,0,0,0-.91-2.19,3.19,3.19,0,0,0-1-.67,3,3,0,0,0-1.19-.24,3.18,3.18,0,0,0-1.18.23,3.07,3.07,0,0,0-1,.68,3,3,0,0,0-.89,2.19V28a3.08,3.08,0,0,0,.92,2.13,3,3,0,0,0,2.15.87,2.86,2.86,0,0,0,1.19-.22,3,3,0,0,0,1-.67,2.92,2.92,0,0,0,.67-1A3,3,0,0,0,313.8,28V21h-3V15.6h8.55V28a8.48,8.48,0,0,1-8.49,8.49ZM328.44,21v15h-5.37V.45h5.37V15.57h6.48V.45h5.37v35.6h-5.37V21Z"/></g></g></svg>