<svg width="341" height="37" viewBox="0 0 341 37" fill="none" xmlns="http://www.w3.org/2000/svg">
<g clip-path="url(#clip0)">
<path d="M8.51993 36.51C7.40224 36.5242 6.29344 36.3098 5.26164 35.8799C4.22984 35.45 3.29684 34.8137 2.51993 34.01C1.71143 33.2337 1.07067 32.2998 0.637241 31.2661C0.20381 30.2324 -0.0130917 29.1208 -6.71829e-05 28V8.58C-0.0143044 7.46231 0.200121 6.35351 0.630037 5.32172C1.05995 4.28992 1.69628 3.35691 2.49993 2.58C3.27876 1.77958 4.21235 1.14604 5.24386 0.717966C6.27537 0.28989 7.38321 0.0762337 8.49993 0.0900051C9.61804 0.072799 10.7277 0.285871 11.76 0.715963C12.7922 1.14606 13.7248 1.78397 14.4999 2.59C15.2953 3.37159 15.9242 4.30614 16.3487 5.33732C16.7733 6.3685 16.9846 7.47496 16.9699 8.59V12.65H11.4499V8.47001C11.4499 7.64783 11.1233 6.85934 10.542 6.27797C9.9606 5.69661 9.1721 5.37001 8.34993 5.37001C7.94506 5.36408 7.54333 5.44185 7.16992 5.59844C6.79651 5.75503 6.45947 5.98707 6.17993 6.28001C5.891 6.56574 5.66312 6.90719 5.51013 7.28365C5.35714 7.66011 5.28223 8.06372 5.28993 8.47001V28C5.30567 28.8029 5.63637 29.5674 6.21069 30.1286C6.78501 30.6898 7.55693 31.0028 8.35993 31C8.76622 31.0077 9.16983 30.9328 9.54629 30.7798C9.92275 30.6268 10.2642 30.3989 10.5499 30.11C10.8346 29.8373 11.0611 29.5097 11.2158 29.1471C11.3705 28.7845 11.4501 28.3943 11.4499 28V21H8.44993V15.6H16.9999V28C17.0171 29.1181 16.8041 30.2278 16.374 31.26C15.9439 32.2922 15.306 33.2249 14.4999 34C13.7255 34.8021 12.796 35.4382 11.7679 35.8697C10.7399 36.3012 9.63482 36.519 8.51993 36.51ZM29.1999 36.45C28.0865 36.4566 26.9828 36.2428 25.9524 35.821C24.922 35.3992 23.9852 34.7777 23.1961 33.9922C22.4069 33.2068 21.7809 32.2729 21.3543 31.2445C20.9276 30.2161 20.7086 29.1134 20.7099 28V0.450005H25.9999V27.93C25.994 28.3349 26.0718 28.7366 26.2284 29.11C26.385 29.4834 26.617 29.8205 26.9099 30.1C27.1957 30.3889 27.5371 30.6168 27.9136 30.7698C28.29 30.9228 28.6936 30.9977 29.0999 30.99C29.5035 30.9913 29.9033 30.9128 30.2763 30.759C30.6494 30.6052 30.9884 30.3791 31.2737 30.0938C31.559 29.8084 31.7851 29.4695 31.9389 29.0964C32.0927 28.7233 32.1712 28.3235 32.1699 27.92V0.450005H37.7699V28C37.7908 29.1186 37.5793 30.2294 37.149 31.2621C36.7187 32.2949 36.0789 33.2271 35.2699 34C34.4767 34.798 33.5297 35.4267 32.4863 35.8478C31.4429 36.269 30.3249 36.4738 29.1999 36.45ZM49.8899 0.450005C52.8833 0.450005 55.0799 1.27334 56.4799 2.92001C57.7969 4.63308 58.4535 6.76277 58.3299 8.92V14.09C58.3449 15.2997 58.0959 16.4982 57.6002 17.6018C57.1045 18.7054 56.3741 19.6876 55.4599 20.48L59.4599 36.02H53.6199L50.3699 22.64H46.7899V36.05H41.4199V0.450005H49.8899ZM53.0999 9C53.0999 6.93334 52.0766 5.90001 50.0299 5.90001H46.7899V17.32H49.9999C50.4048 17.3259 50.8065 17.2482 51.1799 17.0916C51.5534 16.935 51.8904 16.7029 52.1699 16.41C52.4607 16.1251 52.6904 15.784 52.8451 15.4075C52.9998 15.0311 53.0763 14.627 53.0699 14.22L53.0999 9ZM80.8799 27.19C80.995 29.4621 80.3318 31.7056 78.9999 33.55C78.0772 34.7761 76.7772 35.665 75.2999 36.08C74.3258 36.3637 73.3144 36.4986 72.2999 36.48C70.4083 36.5693 68.5415 36.0199 66.9999 34.92C65.8029 34.0145 64.8593 32.816 64.2599 31.44C63.5616 29.8604 63.1615 28.1652 63.0799 26.44L68.2399 26C68.2999 27.6399 68.8775 29.2186 69.8899 30.51C70.1584 30.8359 70.4982 31.0957 70.8832 31.2691C71.2682 31.4425 71.688 31.5249 72.1099 31.51C72.6892 31.4896 73.2532 31.3184 73.746 31.0132C74.2389 30.7081 74.6435 30.2795 74.9199 29.77C75.3217 29.0511 75.5091 28.2321 75.4599 27.41C75.3811 25.7385 74.6654 24.1606 73.4599 23L68.6899 18.48C67.2086 17.1277 65.9349 15.5642 64.9099 13.84C64.1137 12.2945 63.7053 10.5785 63.7199 8.84C63.6999 5.61334 64.7933 3.17001 66.9999 1.51001C68.4548 0.469754 70.2124 -0.0610513 71.9999 5.07105e-06C73.7283 -0.0499487 75.4351 0.394086 76.9199 1.28001C78.0038 1.96743 78.8896 2.92563 79.4899 4.06001C80.1678 5.33541 80.5698 6.73913 80.6699 8.18001L75.5299 9.12C75.463 7.88405 75.0276 6.69641 74.2799 5.71001C74.0155 5.41066 73.6861 5.17575 73.3169 5.02323C72.9477 4.87071 72.5486 4.80462 72.1499 4.83001C71.6907 4.8139 71.2362 4.92726 70.8384 5.15713C70.4405 5.387 70.1153 5.72413 69.8999 6.13001C69.4576 6.93022 69.2432 7.83641 69.2799 8.75C69.3629 10.6134 70.1074 12.3862 71.3799 13.75C72.0896 14.5699 72.8729 15.323 73.7199 16C74.9733 17.04 75.7966 17.77 76.1899 18.19C77.3878 19.35 78.4208 20.669 79.2599 22.11C79.5679 22.6524 79.8418 23.2135 80.0799 23.79C80.5489 24.866 80.8199 26.0178 80.8799 27.19ZM89.9399 36.05H84.5699V0.450005H89.9399V36.05ZM98.9999 36.05H93.6399V0.430005H101.35L106.35 26.02L111.15 0.430005H118.55V36.05H113.18V13.66L108.52 36.05H104.2L98.9999 13.72V36.05ZM130.71 0.450005C133.703 0.450005 135.9 1.27334 137.3 2.92001C138.617 4.63308 139.274 6.76277 139.15 8.92V14.09C139.165 15.2997 138.916 16.4982 138.42 17.6018C137.925 18.7054 137.194 19.6876 136.28 20.48L140.28 36.02H134.48L131.22 22.61H127.64V36.05H122.27V0.450005H130.71ZM133.92 9C133.92 6.93334 132.897 5.90001 130.85 5.90001H127.62V17.32H130.86C131.265 17.3259 131.667 17.2482 132.04 17.0916C132.413 16.935 132.75 16.7029 133.03 16.41C133.321 16.1251 133.55 15.784 133.705 15.4075C133.86 15.0311 133.936 14.627 133.93 14.22L133.92 9ZM150.85 27.84L149.55 36.02H144L150 0.450005H157.39L163.39 36.05H157.74L156.49 27.87L150.85 27.84ZM153.67 8.58L151.67 22.58H155.67L153.67 8.58ZM173.07 0.430005L180.2 24.37V0.430005H185.57V36.05H179.8L172.41 13.24V36.05H167V0.430005H173.07ZM201.07 27.99C201.09 29.1076 200.879 30.2172 200.45 31.2495C200.022 32.2819 199.385 33.2148 198.58 33.99C197.799 34.785 196.864 35.413 195.832 35.8359C194.801 36.2587 193.695 36.4677 192.58 36.45C191.458 36.4811 190.337 36.336 189.26 36.02L190.03 31.02C190.544 31.1237 191.066 31.1806 191.59 31.19C191.969 31.2163 192.35 31.2163 192.73 31.19C193.553 31.1526 194.334 30.8187 194.93 30.25C195.222 29.9787 195.453 29.6486 195.608 29.2815C195.763 28.9143 195.839 28.5185 195.83 28.12V0.510005H201.09L201.07 27.99ZM213.27 5.07105e-06C214.388 -0.0142322 215.496 0.200193 216.528 0.630109C217.56 1.06003 218.493 1.69635 219.27 2.50001C220.07 3.27884 220.704 4.21243 221.132 5.24393C221.56 6.27544 221.774 7.38328 221.76 8.5V28C221.816 29.1509 221.637 30.3012 221.235 31.3811C220.833 32.461 220.216 33.448 219.422 34.2823C218.627 35.1166 217.671 35.7808 216.612 36.2346C215.552 36.6884 214.412 36.9224 213.26 36.9224C212.108 36.9224 210.967 36.6884 209.908 36.2346C208.849 35.7808 207.893 35.1166 207.098 34.2823C206.304 33.448 205.686 32.461 205.285 31.3811C204.883 30.3012 204.704 29.1509 204.76 28V8.52001C204.746 7.40231 204.96 6.29351 205.39 5.26172C205.82 4.22992 206.456 3.29691 207.26 2.52C208.036 1.7115 208.97 1.07074 210.004 0.637313C211.038 0.203882 212.149 -0.0130194 213.27 5.07105e-06ZM216.2 8.41C216.201 8.00648 216.123 7.60667 215.969 7.23361C215.815 6.86054 215.589 6.52158 215.304 6.23624C215.018 5.9509 214.679 5.72482 214.306 5.571C213.933 5.41719 213.533 5.33868 213.13 5.34001C212.723 5.3336 212.319 5.41009 211.942 5.56481C211.566 5.71954 211.225 5.94926 210.94 6.24001C210.642 6.51692 210.404 6.85279 210.242 7.22633C210.08 7.59986 209.998 8.00293 210 8.41V27.9C209.994 28.3049 210.072 28.7066 210.228 29.08C210.385 29.4534 210.617 29.7905 210.91 30.07C211.196 30.3589 211.537 30.5868 211.914 30.7398C212.29 30.8928 212.694 30.9677 213.1 30.96C213.503 30.9613 213.903 30.8828 214.276 30.729C214.649 30.5752 214.988 30.3491 215.274 30.0638C215.559 29.7784 215.785 29.4395 215.939 29.0664C216.093 28.6933 216.171 28.2935 216.17 27.89L216.2 8.41ZM231.2 5.85001H225.49V0.450005H242.25V5.85001H236.57V36.05H231.2V5.85001ZM267.39 27.18C267.491 29.458 266.81 31.7021 265.46 33.54C264.54 34.7643 263.244 35.653 261.77 36.07C260.796 36.3537 259.784 36.4886 258.77 36.47C256.902 36.5436 255.062 35.9949 253.54 34.91C252.343 34.0045 251.399 32.806 250.8 31.43C250.102 29.8504 249.701 28.1552 249.62 26.43L254.73 26.06C254.79 27.6999 255.368 29.2786 256.38 30.57C256.648 30.8959 256.988 31.1557 257.373 31.3291C257.758 31.5025 258.178 31.5849 258.6 31.57C259.179 31.5496 259.743 31.3784 260.236 31.0732C260.729 30.7681 261.134 30.3395 261.41 29.83C261.812 29.1111 261.999 28.2921 261.95 27.47C261.871 25.7985 261.155 24.2206 259.95 23.06L255.18 18.54C253.699 17.1877 252.425 15.6242 251.4 13.9C250.604 12.3545 250.195 10.6385 250.21 8.9C250.21 5.66 251.3 3.20667 253.48 1.54001C254.935 0.499754 256.692 -0.0310513 258.48 0.0300051C260.208 -0.0199487 261.915 0.424086 263.4 1.31001C264.492 1.98786 265.388 2.93926 266 4.07001C266.678 5.34541 267.08 6.74913 267.18 8.19L262 9.12C261.933 7.88405 261.498 6.69641 260.75 5.71001C260.485 5.41066 260.156 5.17575 259.787 5.02323C259.418 4.87071 259.019 4.80462 258.62 4.83001C258.161 4.81674 257.708 4.9325 257.312 5.16409C256.916 5.39569 256.593 5.73383 256.38 6.14001C255.936 6.9363 255.718 7.83884 255.75 8.75C255.833 10.6134 256.577 12.3862 257.85 13.75C258.572 14.5717 259.369 15.3249 260.23 16C261.483 17.04 262.307 17.77 262.7 18.19C263.898 19.35 264.931 20.669 265.77 22.11C266.078 22.6524 266.352 23.2135 266.59 23.79C267.059 24.866 267.33 26.0178 267.39 27.19V27.18ZM276.46 36.04H271.09V0.450005H276.46V36.04ZM286.17 0.430005L293.3 24.37V0.430005H298.67V36.05H292.9L285.51 13.24V36.05H280.14V0.430005H286.17ZM310.88 36.51C309.761 36.5113 308.653 36.2922 307.619 35.8653C306.585 35.4383 305.645 34.8119 304.852 34.0216C304.06 33.2314 303.432 32.2929 303.002 31.2597C302.573 30.2265 302.351 29.1189 302.35 28V8.58C302.336 7.46231 302.55 6.35351 302.98 5.32172C303.41 4.28992 304.046 3.35691 304.85 2.58C305.629 1.77958 306.562 1.14604 307.594 0.717966C308.625 0.28989 309.733 0.0762337 310.85 0.0900051C311.968 0.072799 313.078 0.285871 314.11 0.715963C315.142 1.14606 316.075 1.78397 316.85 2.59C317.645 3.37159 318.274 4.30614 318.699 5.33732C319.123 6.3685 319.335 7.47496 319.32 8.59V12.65H313.8V8.47001C313.8 8.06291 313.72 7.6598 313.564 7.28369C313.408 6.90758 313.18 6.56584 312.892 6.27797C312.604 5.99011 312.262 5.76177 311.886 5.60598C311.51 5.45019 311.107 5.37001 310.7 5.37001C310.295 5.36408 309.893 5.44185 309.52 5.59844C309.147 5.75503 308.809 5.98707 308.53 6.28001C308.241 6.56574 308.013 6.90719 307.86 7.28365C307.707 7.66011 307.632 8.06372 307.64 8.47001V28C307.656 28.8029 307.986 29.5674 308.561 30.1286C309.135 30.6898 309.907 31.0028 310.71 31C311.116 31.0077 311.52 30.9328 311.896 30.7798C312.273 30.6268 312.614 30.3989 312.9 30.11C313.185 29.8373 313.411 29.5097 313.566 29.1471C313.72 28.7845 313.8 28.3943 313.8 28V21H310.8V15.6H319.35V28C319.35 30.2517 318.455 32.4112 316.863 34.0033C315.271 35.5955 313.112 36.49 310.86 36.49L310.88 36.51ZM328.44 21V36.05H323.07V0.450005H328.44V15.57H334.92V0.450005H340.29V36.05H334.92V21H328.44Z" fill="#3A3A3A"/>
</g>
<defs>
<clipPath id="clip0">
<rect width="340.28" height="36.51" fill="white"/>
</clipPath>
</defs>
</svg>
